{
    "asset" : {
        "generator" : "Khronos glTF Blender I/O v3.2.43",
        "version" : "2.0"
    },
    "scene" : 0,
    "scenes" : [
        {
            "name" : "Scene",
            "nodes" : [
                20
            ]
        }
    ],
    "nodes" : [
        {
            "name" : "Object_7"
        },
        {
            "children" : [
                0
            ],
            "name" : "Camera.001",
            "rotation" : [
                -0.2125573456287384,
                0.9047969579696655,
                -0.08438929170370102,
                0.35922181606292725
            ],
            "scale" : [
                99.99999237060547,
                100.0000228881836,
                100.00000762939453
            ],
            "translation" : [
                735.88916015625,
                495.8309326171875,
                692.5791625976562
            ]
        },
        {
            "name" : "Icosphere",
            "rotation" : [
                -0.7806582450866699,
                0.02563999965786934,
                -0.09729460626840591,
                0.6168055534362793
            ],
            "scale" : [
                100.00000762939453,
                100.0000228881836,
                99.99999237060547
            ],
            "translation" : [
                -30.44670295715332,
                0,
                -673.9417724609375
            ]
        },
        {
            "name" : "Icosphere.001",
            "rotation" : [
                -0.7806582450866699,
                0.025639992207288742,
                -0.09729461371898651,
                0.6168055534362793
            ],
            "scale" : [
                186.29177856445312,
                81.56546020507812,
                86.34636688232422
            ],
            "translation" : [
                174.45135498046875,
                0,
                -684.6392822265625
            ]
        },
        {
            "name" : "Icosphere.002",
            "rotation" : [
                -0.7541184425354004,
                -0.4414040148258209,
                -0.45646798610687256,
                0.16764473915100098
            ],
            "scale" : [
                95.67990112304688,
                89.64270782470703,
                180.18666076660156
            ],
            "translation" : [
                -212.8861083984375,
                0,
                -676.1075439453125
            ]
        },
        {
            "name" : "Icosphere.003",
            "rotation" : [
                0.9638110399246216,
                0.06154125556349754,
                0.08041819930076599,
                0.24660472571849823
            ],
            "scale" : [
                100.0000228881836,
                100.00001525878906,
                100
            ],
            "translation" : [
                -113.98633575439453,
                15.548470497131348,
                706.4367065429688
            ]
        },
        {
            "name" : "Icosphere.004",
            "rotation" : [
                0.9638110399246216,
                0.061541248112916946,
                0.0804181843996048,
                0.24660471081733704
            ],
            "scale" : [
                186.29177856445312,
                81.5654525756836,
                86.34637451171875
            ],
            "translation" : [
                90.90528106689453,
                23.924766540527344,
                709.6964111328125
            ]
        },
        {
            "name" : "Icosphere.005",
            "rotation" : [
                0.5907716155052185,
                0.630119264125824,
                -0.07344333827495575,
                0.4985426366329193
            ],
            "scale" : [
                95.67989349365234,
                89.64270782470703,
                180.18670654296875
            ],
            "translation" : [
                -296.42657470703125,
                30.324068069458008,
                706.6229858398438
            ]
        },
        {
            "name" : "Icosphere.006",
            "rotation" : [
                -0.7541182637214661,
                -0.44140419363975525,
                -0.4564681649208069,
                0.16764488816261292
            ],
            "scale" : [
                64.22606658935547,
                60.173545837402344,
                120.95206451416016
            ],
            "translation" : [
                372.5094909667969,
                -12.809770584106445,
                -262.0205993652344
            ]
        },
        {
            "name" : "Icosphere.007",
            "rotation" : [
                0.4108205735683441,
                0.4646484851837158,
                0.7799256443977356,
                0.08393005281686783
            ],
            "scale" : [
                64.22608184814453,
                60.17356491088867,
                120.95205688476562
            ],
            "translation" : [
                280.25555419921875,
                -12.809770584106445,
                -291.4507141113281
            ]
        },
        {
            "name" : "Icosphere.008",
            "rotation" : [
                0.4108206629753113,
                0.4646484851837158,
                0.7799255847930908,
                0.08393006771802902
            ],
            "scale" : [
                73.69593048095703,
                69.04588317871094,
                138.7859344482422
            ],
            "translation" : [
                -674.00146484375,
                -12.809770584106445,
                -246.5528564453125
            ]
        },
        {
            "name" : "Icosphere.009",
            "rotation" : [
                -0.7681439518928528,
                -0.43589547276496887,
                -0.4324493706226349,
                0.18148726224899292
            ],
            "scale" : [
                64.22607421875,
                60.17354965209961,
                120.95205688476562
            ],
            "translation" : [
                495.14227294921875,
                -12.809770584106445,
                -187.003662109375
            ]
        },
        {
            "name" : "Icosphere.010",
            "rotation" : [
                -0.7806582450866699,
                0.025639992207288742,
                -0.09729461371898651,
                0.6168055534362793
            ],
            "scale" : [
                186.29177856445312,
                81.56546020507812,
                86.34636688232422
            ],
            "translation" : [
                335.7425842285156,
                0,
                -196.24305725097656
            ]
        },
        {
            "name" : "Object_5"
        },
        {
            "children" : [
                13
            ],
            "name" : "Object_4",
            "rotation" : [
                0.7071068286895752,
                0,
                0,
                0.7071067094802856
            ]
        },
        {
            "children" : [
                14
            ],
            "name" : "Light.001",
            "rotation" : [
                0.16907568275928497,
                0.7558803558349609,
                -0.272171288728714,
                0.570947527885437
            ],
            "scale" : [
                100.00000762939453,
                100.00000762939453,
                100.00000762939453
            ],
            "translation" : [
                407.6245422363281,
                590.38623046875,
                -100.5453872680664
            ]
        },
        {
            "mesh" : 0,
            "name" : "Plane_water_0"
        },
        {
            "children" : [
                16
            ],
            "name" : "Plane",
            "rotation" : [
                -0.7071068286895752,
                0,
                0,
                0.7071067094802856
            ],
            "scale" : [
                949.510009765625,
                629.0216064453125,
                629.0216064453125
            ]
        },
        {
            "children" : [
                1,
                2,
                3,
                4,
                5,
                6,
                7,
                8,
                9,
                10,
                11,
                12,
                15,
                17
            ],
            "name" : "RootNode"
        },
        {
            "children" : [
                18
            ],
            "name" : "146adf3ffe1a47fd860a35c1ed1c4311.fbx",
            "rotation" : [
                0.7071068286895752,
                0,
                0,
                0.7071067094802856
            ],
            "scale" : [
                0.009999999776482582,
                0.009999998845160007,
                0.009999998845160007
            ]
        },
        {
            "children" : [
                19
            ],
            "name" : "Sketchfab_model",
            "rotation" : [
                -0.7071068286895752,
                0,
                0,
                0.7071067094802856
            ],
            "scale" : [
                0.5014433264732361,
                0.5014433264732361,
                0.5014433264732361
            ]
        }
    ],
    "materials" : [
        {
            "doubleSided" : true,
            "name" : "water",
            "pbrMetallicRoughness" : {
                "baseColorFactor" : [
                    0,
                    0.2861810028553009,
                    0.5088809728622437,
                    1
                ],
                "metallicFactor" : 0,
                "roughnessFactor" : 0.946017324924469
            }
        },
        {
            "doubleSided" : true,
            "name" : "grass",
            "pbrMetallicRoughness" : {
                "baseColorFactor" : [
                    0.11455799639225006,
                    0.5717030167579651,
                    0.0275494996458292,
                    1
                ],
                "metallicFactor" : 0,
                "roughnessFactor" : 0.902680516242981
            }
        },
        {
            "doubleSided" : true,
            "emissiveFactor" : [
                1,
                1,
                1
            ],
            "name" : "material",
            "pbrMetallicRoughness" : {
                "baseColorFactor" : [
                    0.800000011920929,
                    0.800000011920929,
                    0.800000011920929,
                    1
                ],
                "metallicFactor" : 0,
                "roughnessFactor" : 0.28512778878211975
            }
        },
        {
            "doubleSided" : true,
            "name" : "sand",
            "pbrMetallicRoughness" : {
                "baseColorFactor" : [
                    0.6634510159492493,
                    0.362621009349823,
                    0.13797800242900848,
                    1
                ],
                "metallicFactor" : 0,
                "roughnessFactor" : 0.9082410931587219
            }
        }
    ],
    "meshes" : [
        {
            "name" : "Plane_water_0",
            "primitives" : [
                {
                    "attributes" : {
                        "POSITION" : 0,
                        "NORMAL" : 1,
                        "TEXCOORD_0" : 2
                    },
                    "indices" : 3,
                    "material" : 0
                },
                {
                    "attributes" : {
                        "POSITION" : 4,
                        "NORMAL" : 5,
                        "TEXCOORD_0" : 6
                    },
                    "indices" : 7,
                    "material" : 1
                },
                {
                    "attributes" : {
                        "POSITION" : 8,
                        "NORMAL" : 9,
                        "TEXCOORD_0" : 10
                    },
                    "indices" : 11,
                    "material" : 2
                },
                {
                    "attributes" : {
                        "POSITION" : 12,
                        "NORMAL" : 13,
                        "TEXCOORD_0" : 14
                    },
                    "indices" : 15,
                    "material" : 3
                }
            ]
        }
    ],
    "accessors" : [
        {
            "bufferView" : 0,
            "componentType" : 5126,
            "count" : 56545,
            "max" : [
                3.822263479232788,
                4.83085823059082,
                0.039869558066129684
            ],
            "min" : [
                -3.594923496246338,
                -4.763150691986084,
                -0.0008239224553108215
            ],
            "type" : "VEC3"
        },
        {
            "bufferView" : 1,
            "componentType" : 5126,
            "count" : 56545,
            "type" : "VEC3"
        },
        {
            "bufferView" : 2,
            "componentType" : 5126,
            "count" : 56545,
            "type" : "VEC2"
        },
        {
            "bufferView" : 3,
            "componentType" : 5123,
            "count" : 77514,
            "type" : "SCALAR"
        },
        {
            "bufferView" : 4,
            "componentType" : 5126,
            "count" : 1421,
            "max" : [
                1.709830641746521,
                0.7107493877410889,
                0.038763102144002914
            ],
            "min" : [
                -0.9369547963142395,
                -0.8334877490997314,
                0.034176431596279144
            ],
            "type" : "VEC3"
        },
        {
            "bufferView" : 5,
            "componentType" : 5126,
            "count" : 1421,
            "type" : "VEC3"
        },
        {
            "bufferView" : 6,
            "componentType" : 5126,
            "count" : 1421,
            "type" : "VEC2"
        },
        {
            "bufferView" : 7,
            "componentType" : 5123,
            "count" : 1698,
            "type" : "SCALAR"
        },
        {
            "bufferView" : 8,
            "componentType" : 5126,
            "count" : 1216,
            "max" : [
                0.819074273109436,
                1.3132976293563843,
                0.039869558066129684
            ],
            "min" : [
                -0.7470628023147583,
                -1.348482370376587,
                -0.0008239224553108215
            ],
            "type" : "VEC3"
        },
        {
            "bufferView" : 9,
            "componentType" : 5126,
            "count" : 1216,
            "type" : "VEC3"
        },
        {
            "bufferView" : 10,
            "componentType" : 5126,
            "count" : 1216,
            "type" : "VEC2"
        },
        {
            "bufferView" : 11,
            "componentType" : 5123,
            "count" : 1458,
            "type" : "SCALAR"
        },
        {
            "bufferView" : 12,
            "componentType" : 5126,
            "count" : 372,
            "max" : [
                0.2899448275566101,
                0.3256714642047882,
                0.03696518391370773
            ],
            "min" : [
                -0.19347131252288818,
                -0.5277063250541687,
                0.03696518391370773
            ],
            "type" : "VEC3"
        },
        {
            "bufferView" : 13,
            "componentType" : 5126,
            "count" : 372,
            "type" : "VEC3"
        },
        {
            "bufferView" : 14,
            "componentType" : 5126,
            "count" : 372,
            "type" : "VEC2"
        },
        {
            "bufferView" : 15,
            "componentType" : 5123,
            "count" : 414,
            "type" : "SCALAR"
        }
    ],
    "bufferViews" : [
        {
            "buffer" : 0,
            "byteLength" : 678540,
            "byteOffset" : 0
        },
        {
            "buffer" : 0,
            "byteLength" : 678540,
            "byteOffset" : 678540
        },
        {
            "buffer" : 0,
            "byteLength" : 452360,
            "byteOffset" : 1357080
        },
        {
            "buffer" : 0,
            "byteLength" : 155028,
            "byteOffset" : 1809440
        },
        {
            "buffer" : 0,
            "byteLength" : 17052,
            "byteOffset" : 1964468
        },
        {
            "buffer" : 0,
            "byteLength" : 17052,
            "byteOffset" : 1981520
        },
        {
            "buffer" : 0,
            "byteLength" : 11368,
            "byteOffset" : 1998572
        },
        {
            "buffer" : 0,
            "byteLength" : 3396,
            "byteOffset" : 2009940
        },
        {
            "buffer" : 0,
            "byteLength" : 14592,
            "byteOffset" : 2013336
        },
        {
            "buffer" : 0,
            "byteLength" : 14592,
            "byteOffset" : 2027928
        },
        {
            "buffer" : 0,
            "byteLength" : 9728,
            "byteOffset" : 2042520
        },
        {
            "buffer" : 0,
            "byteLength" : 2916,
            "byteOffset" : 2052248
        },
        {
            "buffer" : 0,
            "byteLength" : 4464,
            "byteOffset" : 2055164
        },
        {
            "buffer" : 0,
            "byteLength" : 4464,
            "byteOffset" : 2059628
        },
        {
            "buffer" : 0,
            "byteLength" : 2976,
            "byteOffset" : 2064092
        },
        {
            "buffer" : 0,
            "byteLength" : 828,
            "byteOffset" : 2067068
        }
    ],
    "buffers" : [
        {
            "byteLength" : 2067896,
            "uri" : "scene.bin"
        }
    ]
}
